<svg xmlns="http://www.w3.org/2000/svg" xmlns:xlink="http://www.w3.org/1999/xlink" contentStyleType="text/css" height="463px" preserveAspectRatio="none" style="width:1088px;height:463px;background:#FFFFFF;" version="1.1" viewBox="0 0 1088 463" width="1088px" zoomAndPan="magnify"><defs/><g><!--cluster 99bd99a530f0c7d670f7570fc0bb94af--><g id="cluster_99bd99a530f0c7d670f7570fc0bb94af"><path d="M8.5,6 L267.5,6 A3.75,3.75 0 0 1 270,8.5 L277,28.2969 L706.5,28.2969 A2.5,2.5 0 0 1 709,30.7969 L709,454.17 A2.5,2.5 0 0 1 706.5,456.67 L8.5,456.67 A2.5,2.5 0 0 1 6,454.17 L6,8.5 A2.5,2.5 0 0 1 8.5,6 " fill="none" style="stroke:#000000;stroke-width:1.5;"/><line style="stroke:#000000;stroke-width:1.5;" x1="6" x2="277" y1="28.2969" y2="28.2969"/><text fill="#000000" font-family="sans-serif" font-size="14" font-weight="bold" lengthAdjust="spacing" textLength="258" x="10" y="20.9951">{{cookiecutter.module_name}}/</text></g><!--cluster 6c4ef5c9dc8db461a20ad1a27d06df2d--><g id="cluster_6c4ef5c9dc8db461a20ad1a27d06df2d"><path d="M32.5,49 L230.5,49 A3.75,3.75 0 0 1 233,51.5 L240,71.2969 L240.5,71.2969 A2.5,2.5 0 0 1 243,73.7969 L243,176.39 A2.5,2.5 0 0 1 240.5,178.89 L32.5,178.89 A2.5,2.5 0 0 1 30,176.39 L30,51.5 A2.5,2.5 0 0 1 32.5,49 " fill="none" style="stroke:#000000;stroke-width:1.5;"/><line style="stroke:#000000;stroke-width:1.5;" x1="30" x2="240" y1="71.2969" y2="71.2969"/><text fill="#000000" font-family="sans-serif" font-size="14" font-weight="bold" lengthAdjust="spacing" textLength="197" x="34" y="63.9951">management/commands/</text></g><!--entity b8f69ebccff26f6e584beabefbaa5bd9--><g id="elem_b8f69ebccff26f6e584beabefbaa5bd9"><rect fill="#F1F1F1" height="78.8906" rx="2.5" ry="2.5" style="stroke:#181818;stroke-width:0.5;" width="70" x="259" y="84"/><rect fill="#F1F1F1" height="10" style="stroke:#181818;stroke-width:0.5;" width="15" x="309" y="89"/><rect fill="#F1F1F1" height="2" style="stroke:#181818;stroke-width:0.5;" width="4" x="307" y="91"/><rect fill="#F1F1F1" height="2" style="stroke:#181818;stroke-width:0.5;" width="4" x="307" y="95"/><text fill="#000000" font-family="sans-serif" font-size="14" font-weight="bold" lengthAdjust="spacing" textLength="30" x="274" y="116.9951">urls</text><text fill="#000000" font-family="sans-serif" font-size="14" lengthAdjust="spacing" textLength="4" x="274" y="133.292">&#160;</text><text fill="#000000" font-family="sans-serif" font-size="14" lengthAdjust="spacing" textLength="4" x="274" y="149.5889">&#160;</text></g><!--entity 4ac2dd0f169d46178ccd2c21114febb3--><g id="elem_4ac2dd0f169d46178ccd2c21114febb3"><rect fill="#F1F1F1" height="78.8906" rx="2.5" ry="2.5" style="stroke:#181818;stroke-width:0.5;" width="197" x="363.5" y="84"/><rect fill="#F1F1F1" height="10" style="stroke:#181818;stroke-width:0.5;" width="15" x="540.5" y="89"/><rect fill="#F1F1F1" height="2" style="stroke:#181818;stroke-width:0.5;" width="4" x="538.5" y="91"/><rect fill="#F1F1F1" height="2" style="stroke:#181818;stroke-width:0.5;" width="4" x="538.5" y="95"/><text fill="#000000" font-family="sans-serif" font-size="14" font-weight="bold" lengthAdjust="spacing" textLength="157" x="378.5" y="116.9951">context_processors</text><text fill="#000000" font-family="sans-serif" font-size="14" lengthAdjust="spacing" textLength="4" x="378.5" y="133.292">&#160;</text><text fill="#000000" font-family="sans-serif" font-size="14" lengthAdjust="spacing" textLength="4" x="378.5" y="149.5889">&#160;</text></g><!--entity ea7ff6cf4a6b7fc95461f7af7431779b--><g id="elem_ea7ff6cf4a6b7fc95461f7af7431779b"><rect fill="#F1F1F1" height="78.8906" rx="2.5" ry="2.5" style="stroke:#181818;stroke-width:0.5;" width="98" x="595" y="84"/><rect fill="#F1F1F1" height="10" style="stroke:#181818;stroke-width:0.5;" width="15" x="673" y="89"/><rect fill="#F1F1F1" height="2" style="stroke:#181818;stroke-width:0.5;" width="4" x="671" y="91"/><rect fill="#F1F1F1" height="2" style="stroke:#181818;stroke-width:0.5;" width="4" x="671" y="95"/><text fill="#000000" font-family="sans-serif" font-size="14" font-weight="bold" lengthAdjust="spacing" textLength="58" x="610" y="116.9951">logging</text><text fill="#000000" font-family="sans-serif" font-size="14" lengthAdjust="spacing" textLength="4" x="610" y="133.292">&#160;</text><text fill="#000000" font-family="sans-serif" font-size="14" lengthAdjust="spacing" textLength="4" x="610" y="149.5889">&#160;</text></g><!--entity f26fa85b8162e622eaf9849e94f47e63--><g id="elem_f26fa85b8162e622eaf9849e94f47e63"><rect fill="#F1F1F1" height="78.8906" rx="2.5" ry="2.5" style="stroke:#181818;stroke-width:0.5;" width="86" x="251" y="222.89"/><rect fill="#F1F1F1" height="10" style="stroke:#181818;stroke-width:0.5;" width="15" x="317" y="227.89"/><rect fill="#F1F1F1" height="2" style="stroke:#181818;stroke-width:0.5;" width="4" x="315" y="229.89"/><rect fill="#F1F1F1" height="2" style="stroke:#181818;stroke-width:0.5;" width="4" x="315" y="233.89"/><text fill="#000000" font-family="sans-serif" font-size="14" font-weight="bold" lengthAdjust="spacing" textLength="46" x="266" y="255.8851">views</text><text fill="#000000" font-family="sans-serif" font-size="14" lengthAdjust="spacing" textLength="4" x="266" y="272.182">&#160;</text><text fill="#000000" font-family="sans-serif" font-size="14" lengthAdjust="spacing" textLength="4" x="266" y="288.4789">&#160;</text></g><!--entity f2521bbcba2990fbfde5ec4b9e44c3e4--><g id="elem_f2521bbcba2990fbfde5ec4b9e44c3e4"><rect fill="#F1F1F1" height="78.8906" rx="2.5" ry="2.5" style="stroke:#181818;stroke-width:0.5;" width="78" x="372" y="222.89"/><rect fill="#F1F1F1" height="10" style="stroke:#181818;stroke-width:0.5;" width="15" x="430" y="227.89"/><rect fill="#F1F1F1" height="2" style="stroke:#181818;stroke-width:0.5;" width="4" x="428" y="229.89"/><rect fill="#F1F1F1" height="2" style="stroke:#181818;stroke-width:0.5;" width="4" x="428" y="233.89"/><text fill="#000000" font-family="sans-serif" font-size="14" font-weight="bold" lengthAdjust="spacing" textLength="38" x="387" y="255.8851">apps</text><text fill="#000000" font-family="sans-serif" font-size="14" lengthAdjust="spacing" textLength="4" x="387" y="272.182">&#160;</text><text fill="#000000" font-family="sans-serif" font-size="14" lengthAdjust="spacing" textLength="4" x="387" y="288.4789">&#160;</text></g><!--entity 7f4aea587fa71c6ab1149c55c0bd7d2c--><g id="elem_7f4aea587fa71c6ab1149c55c0bd7d2c"><rect fill="#F1F1F1" height="78.8906" rx="2.5" ry="2.5" style="stroke:#181818;stroke-width:0.5;" width="97" x="484.5" y="222.89"/><rect fill="#F1F1F1" height="10" style="stroke:#181818;stroke-width:0.5;" width="15" x="561.5" y="227.89"/><rect fill="#F1F1F1" height="2" style="stroke:#181818;stroke-width:0.5;" width="4" x="559.5" y="229.89"/><rect fill="#F1F1F1" height="2" style="stroke:#181818;stroke-width:0.5;" width="4" x="559.5" y="233.89"/><text fill="#000000" font-family="sans-serif" font-size="14" font-weight="bold" lengthAdjust="spacing" textLength="57" x="499.5" y="255.8851">models</text><text fill="#000000" font-family="sans-serif" font-size="14" lengthAdjust="spacing" textLength="4" x="499.5" y="272.182">&#160;</text><text fill="#000000" font-family="sans-serif" font-size="14" lengthAdjust="spacing" textLength="4" x="499.5" y="288.4789">&#160;</text></g><!--entity 3efce4ad29e84b36b0d990335efd49a9--><g id="elem_3efce4ad29e84b36b0d990335efd49a9"><rect fill="#F1F1F1" height="78.8906" rx="2.5" ry="2.5" style="stroke:#181818;stroke-width:0.5;" width="87" x="250.5" y="361.78"/><rect fill="#F1F1F1" height="10" style="stroke:#181818;stroke-width:0.5;" width="15" x="317.5" y="366.78"/><rect fill="#F1F1F1" height="2" style="stroke:#181818;stroke-width:0.5;" width="4" x="315.5" y="368.78"/><rect fill="#F1F1F1" height="2" style="stroke:#181818;stroke-width:0.5;" width="4" x="315.5" y="372.78"/><text fill="#000000" font-family="sans-serif" font-size="14" font-weight="bold" lengthAdjust="spacing" textLength="47" x="265.5" y="394.7751">admin</text><text fill="#000000" font-family="sans-serif" font-size="14" lengthAdjust="spacing" textLength="4" x="265.5" y="411.072">&#160;</text><text fill="#000000" font-family="sans-serif" font-size="14" lengthAdjust="spacing" textLength="4" x="265.5" y="427.3689">&#160;</text></g><!--entity 63198b49b844f69f37949bc889ef6c18--><g id="elem_63198b49b844f69f37949bc889ef6c18"><rect fill="#F1F1F1" height="78.8906" rx="2.5" ry="2.5" style="stroke:#181818;stroke-width:0.5;" width="133" x="68.5" y="84"/><rect fill="#F1F1F1" height="10" style="stroke:#181818;stroke-width:0.5;" width="15" x="181.5" y="89"/><rect fill="#F1F1F1" height="2" style="stroke:#181818;stroke-width:0.5;" width="4" x="179.5" y="91"/><rect fill="#F1F1F1" height="2" style="stroke:#181818;stroke-width:0.5;" width="4" x="179.5" y="95"/><text fill="#000000" font-family="sans-serif" font-size="14" font-weight="bold" lengthAdjust="spacing" textLength="93" x="83.5" y="116.9951">clear_cache</text><text fill="#000000" font-family="sans-serif" font-size="14" lengthAdjust="spacing" textLength="4" x="83.5" y="133.292">&#160;</text><text fill="#000000" font-family="sans-serif" font-size="14" lengthAdjust="spacing" textLength="4" x="83.5" y="149.5889">&#160;</text></g><!--entity 8849442198f0f423dad6fb884f90efa9--><g id="elem_8849442198f0f423dad6fb884f90efa9"><rect fill="#F1F1F1" height="78.8906" rx="2.5" ry="2.5" style="stroke:#181818;stroke-width:0.5;" width="151" x="727.5" y="84"/><rect fill="#F1F1F1" height="10" style="stroke:#181818;stroke-width:0.5;" width="15" x="858.5" y="89"/><rect fill="#F1F1F1" height="2" style="stroke:#181818;stroke-width:0.5;" width="4" x="856.5" y="91"/><rect fill="#F1F1F1" height="2" style="stroke:#181818;stroke-width:0.5;" width="4" x="856.5" y="95"/><text fill="#000000" font-family="sans-serif" font-size="14" font-weight="bold" lengthAdjust="spacing" textLength="111" x="742.5" y="116.9951">tests/conftest</text><text fill="#000000" font-family="sans-serif" font-size="14" lengthAdjust="spacing" textLength="4" x="742.5" y="133.292">&#160;</text><text fill="#000000" font-family="sans-serif" font-size="14" lengthAdjust="spacing" textLength="4" x="742.5" y="149.5889">&#160;</text></g><!--entity 5c35c018701351ad212f4ff6c2374286--><g id="elem_5c35c018701351ad212f4ff6c2374286"><rect fill="#F1F1F1" height="78.8906" rx="2.5" ry="2.5" style="stroke:#181818;stroke-width:0.5;" width="169" x="913.5" y="84"/><rect fill="#F1F1F1" height="10" style="stroke:#181818;stroke-width:0.5;" width="15" x="1062.5" y="89"/><rect fill="#F1F1F1" height="2" style="stroke:#181818;stroke-width:0.5;" width="4" x="1060.5" y="91"/><rect fill="#F1F1F1" height="2" style="stroke:#181818;stroke-width:0.5;" width="4" x="1060.5" y="95"/><text fill="#000000" font-family="sans-serif" font-size="14" font-weight="bold" lengthAdjust="spacing" textLength="129" x="928.5" y="116.9951">tests/test_views</text><text fill="#000000" font-family="sans-serif" font-size="14" lengthAdjust="spacing" textLength="4" x="928.5" y="133.292">&#160;</text><text fill="#000000" font-family="sans-serif" font-size="14" lengthAdjust="spacing" textLength="4" x="928.5" y="149.5889">&#160;</text></g><!--SRC=[RPBDRjj038JlVWeZHn-Q_T_bimI5GN99ruWb6PRI10ZyxgL_3cxT2wLTO0Qpyn4FX-bps7_jnzsAf-4uZJ8kwzOIf1GyD7MQGkpOYvBTAZXHXFNRQhDPP5xcLvv6lVnjDglLwkU3H-QOsVbMdO_POmy-Q58j769DePK7ZylS_jxBvtntEIA_uqxMBz_VF4tlU-6FPP7JZs7g7mVPZZZ8-VpwiiPv3K0T07DqwhZsKftMR8CT4IJKzVT39cfQG8XPDHGjabiYGH8bn6m-rqmVfyFyz9g477ftwWlqL7njp3rmyDud5Q9uLLeNYtmjs-DfOfddwVJi8rWl7MZ2GbKPifbfHQqf-bg1hZw7QRSp84_YIsXicPelGKe8WWf6IY1fgb9k8HvxV9Jcu8cOC00u9UsIXHE1fCHHqbMAn-EpibfMmTogOlLSaEp9mDdOKg_MmLLfOEG_hKLHbcJiGQpfMCWPAnTZ5kq9xdk4VTYF_u8VSBJlO2QsOOET-dpZNJY9PeREhPELXy5XjrcxArr3_ujtYRR2b81QIaPUOmKxS6iW1i6t6xM3u6dBoB_adkAyEly1]--></g></svg>